<svg xmlns="http://www.w3.org/2000/svg" version="1.1" xmlns:xlink="http://www.w3.org/1999/xlink" width="1000" height="1000"><svg width="1000" height="1000" viewBox="0 0 1000 1000" fill="none" xmlns="http://www.w3.org/2000/svg">
<path d="M468.824 65.3922C503.126 13.9364 583.326 38.2243 583.326 100.06V333.337H815.219C865.133 333.337 894.945 388.967 867.262 430.504L531.161 934.614C496.854 986.067 416.663 961.768 416.659 899.946V666.67H184.766C134.843 666.67 105.08 611.033 132.765 569.502L468.824 65.3922ZM499.993 831.139L776.319 416.67H562.493C527.983 416.666 499.994 388.686 499.993 354.17V168.867L223.707 583.337H437.493C472.009 583.337 499.993 611.32 499.993 645.837V831.139Z" fill="black"></path>
</svg><style>@media (prefers-color-scheme: light) { :root { filter: none; } }
@media (prefers-color-scheme: dark) { :root { filter: none; } }
</style></svg>